# xmcd
#
# Track frame offsets:
# 150
# 12936
# 25276
# 40801
# 58151
# 71532
# 88947
# 104821
# 128365
# 147468
# 169737
# 182834
# 195041
# 210603
# 227967
# 241118
# 258277
# 274159
# 297699
#
# Disc length: 4224 seconds
#
#
# Revision: 0
# Processed by: cddbd v1.5.2PL0 Copyright (c) Steve Scherf et al.
# Submitted via: FreeRIP 2.944 
#
DISCID=1a107e13
DTITLE=Paulo André - Temente Teimoso
DYEAR=2006
DGENRE=Gospel
TTITLE0=CADÊ O VASO
TTITLE1=SAPATO DE FOGO
TTITLE2=TEMENTE TEIMOSO
TTITLE3=EXPULSA ELE
TTITLE4=IGREJA DO INTERIOR
TTITLE5=VAI SER BOM DEMAIS
TTITLE6=HOMEM DE DEUS
TTITLE7=ANDARILHO
TTITLE8=QUEM PLANTA COLHE
TTITLE9=FOGO NO TENTADOR
TTITLE10=PLAY BACK 1
TTITLE11=PLAY BACK 2
TTITLE12=PLAY BACK 3
TTITLE13=PLAY BACK 4
TTITLE14=PLAY BACK 5
TTITLE15=PLAY BACK 6
TTITLE16=PLAY BACK 7
TTITLE17=PLAY BACK 8
TTITLE18=PLAY BACK 9
EXTD=Um cd BOm
EXTT0=
EXTT1=
EXTT2=
EXTT3=
EXTT4=
EXTT5=
EXTT6=
EXTT7=
EXTT8=
EXTT9=
EXTT10=
EXTT11=
EXTT12=
EXTT13=
EXTT14=
EXTT15=
EXTT16=
EXTT17=
EXTT18=
PLAYORDER=
